<?xml version="1.0" encoding="utf-8"?>
<!-- Generator: Adobe Illustrator 21.0.0, SVG Export Plug-In . SVG Version: 6.00 Build 0)  -->
<svg version="1.1" id="图层_1" xmlns="http://www.w3.org/2000/svg" xmlns:xlink="http://www.w3.org/1999/xlink" x="0px" y="0px"
	 viewBox="0 0 400 100" style="enable-background:new 0 0 400 100;" xml:space="preserve">
<style type="text/css">
	.st0{fill:#FAFAFA;}
</style>
<path class="st0" d="M50.5,0c-27.7,0-50,22.4-50,50c0,27.7,22.3,50,50,50c27.6,0,50-22.3,50-50C100.5,22.4,78.2,0,50.5,0z
	 M50.5,94.1C26.4,94.1,6.4,74.5,6.4,50c0-24.1,19.9-44.1,44.1-44.1C75,5.9,94.6,25.9,94.6,50C94.6,74.5,75,94.1,50.5,94.1z"/>
<path class="st0" d="M50.5,86.7c20.2,0,36.7-16.5,36.7-36.7c0.1-5.9-1.3-11.8-4.2-16.8L50.2,86.7H50.5z"/>
<polygon class="st0" points="56.5,59.2 51.2,50.4 51.2,50.4 40,50.4 50.9,68.2 "/>
<path class="st0" d="M13.8,50c0,20.3,16.1,36.5,36.1,36.7L18,33.2C15.1,38.5,13.8,44.1,13.8,50z"/>
<path class="st0" d="M50.6,13.3c-8.5,0-16.3,3-22.6,8c-3.8,3-7,6.7-9.4,11h10.5l5.6,9.1H46l0,0h0l-5.2-9.1h12.6L62.4,48l9.4-16.1
	h10.9C76.1,21,64.1,13.3,50.6,13.3z"/>
<path class="st0" d="M133.1,40.8c0.7-0.9,1.1-1.4,1.3-1.6v15.5h8.3V28.9c0.4-0.6,1.2-1.6,2.9-3.3c2.2-3,3.3-4.6,3.3-5
	c-0.2-0.4-3.5-1.7-10.2-3.9c-5.5,10-11.4,17.7-17.5,23c2.2,2.2,4.6,4.3,7.2,6.1C130.1,44.2,131.7,42.5,133.1,40.8z"/>
<path class="st0" d="M159.4,58c0-0.5,0.1-1.1,0.3-1.9c0.2-0.6,0.3-1,0.3-1.4c0.1-0.6-2.1-0.9-6.7-0.9h-3.9v5.8h-25.8v8h25.8h0.1
	v14.4h10.2V67.7h25.8v-8h-26V58z"/>
<path class="st0" d="M143.6,36.9c1.6,2.8,3,5.2,4.1,7.4c2-0.8,4.1-1.5,6.1-2.5v4.2c-0.2,4.5,2.1,6.6,6.9,6.4h13
	c4.6,0.2,7.4-0.6,8.6-2.2c1.2-1.2,2.1-5,2.5-11.1c-3.5-0.6-6.7-1.3-9.4-2.5c0.6,6.1-1.2,8.8-5.2,8h-4.4c-1.8,0.2-2.8-0.9-2.8-3.1
	v-3.6c2.6-1.2,5.2-2.8,7.7-4.4c5.2-3,9-5,11.4-6.1c0-0.2-2.6-2.8-7.7-7.7c-0.2,0.2-0.6,0.6-1.1,1.1c-2.6,2.6-6,5.1-10.2,7.4V22
	c0-1,0.1-1.7,0.3-2.5c0.2-0.5,0.3-1,0.3-1.6c-0.2-0.2-1-0.4-2.2-0.6c-1.2,0-3.1-0.1-5.2-0.3h-2.5v16.3c-2.6,1.4-5.4,2.6-8.6,3.2
	L143.6,36.9z"/>
<path class="st0" d="M221.2,53.8c-1,2.6-3.3,5.2-6.9,7.7c2.6,1.9,4.8,4.1,6.4,6.7c4.3-3.7,7.2-7.3,8.6-10.8c1.4-3.3,2.2-8.3,2.2-15
	h3.6v18.8c-0.6,5.2,2.2,7.5,8.3,7h3.1c6.6,0.9,9.9-3.2,9.9-12.5c-2.8-0.2-5.6-0.9-8.6-2.2c0.2,4.6-0.8,6.6-2.8,5.8
	c-0.9,0-1.3-0.6-1.3-1.9v-15h11.9v-8h-41.8v8h8.7C222.7,47.8,222.4,51.6,221.2,53.8z"/>
<path class="st0" d="M204.1,34.7c-0.5,0.4,2.3-1,8.4-4.3c-2.1-5-4.1-9.4-6.1-13.3c-0.8,0-3.7,1.3-8.9,3.9c0,0.4,0.5,1.7,1.6,3.9
	C201.5,29.9,203.2,33.1,204.1,34.7z"/>
<polygon class="st0" points="250.6,20.3 217.7,20.3 217.7,20.3 217.7,28.1 250.6,28.1 "/>
<path class="st0" d="M233.3,70.6c-13.6,0-20.8-2.5-21.6-7.4V38.5h-17.5v7.7h8.3v17.2c0,1.8-2.3,4.2-6.9,7.2
	c-1.6,0.9-2.5,1.4-2.5,1.6c1.2,1.8,3.5,4.4,6.9,7.7c0.4-0.4,1.1-1.7,2.5-3.9c2.2-3.1,3.7-4.9,4.7-5.2c0.2,0.2,0.7,0.7,1.6,1.6
	c3,2.2,5.5,3.7,7.7,4.7c3.7,1.2,11,1.9,21.9,1.9h16.6c0.4-2.4,1.3-5.6,3.1-9.5c-2.3,0.6-5.4,1-9.4,1.1
	C245.3,70.8,240.1,70.8,233.3,70.6z"/>
<rect x="274.5" y="22.8" class="st0" width="43.4" height="8"/>
<path class="st0" d="M265.6,47.7h21.3c-2.6,7.1-5.7,12.8-9.4,17.2c-1.4,2.1-3.7,3.4-6.9,4.2c-0.4,0.6-0.3,2.3,0.3,5.2
	c0.3,2.8,0.8,4.5,1.3,5.2c0.8,0,2.5-0.5,5.2-1.4c2-0.6,3.9-1,5.5-1.1c8.7-1.6,18.4-2.6,29.3-2.8c0.4,0.6,1,1.9,1.9,3.9
	c0.6,1.2,1,2,1.1,2.2c6.4-3.7,9.6-5.6,9.6-5.8c-7.7-11.3-13.2-18.7-16.3-22.4c-0.2,0-0.8,0.5-1.9,1.4c-3,2.1-5,3.3-6.1,3.9
	c0,0.4,0.4,1,1.3,2.2c1.4,1.6,3.3,4,5.5,7.2c-3.2,0.4-9.4,0.8-18.2,1.1c-1.3,0-2.2,0-2.8,0c6.3-8.7,10.7-15.5,13.3-20.2h27.4v-8
	h-61.6V47.7z"/>
<polygon class="st0" points="380.6,27.5 376.2,17 368.7,20 373.1,31.1 "/>
<path class="st0" d="M385.3,55.2h13.3v-7.4h-13.8v-8.9H397v-7.2h-7.4c2-5,3.8-8.8,5.4-11.4c0.4-0.4,0.7-0.8,0.9-1.1
	c-0.2-0.2-3.5-0.9-10.2-2.2c-1,4.5-2.3,9.4-3.9,14.7h-15.1v7.2h10.2v8.9h-10.8v7.4h10.2c-0.8,7.9-4.9,14.3-12.2,19.1v-5.5
	c2.2-0.6,3.5-1,4.1-1.1v-7.2c-2.2,0.6-3.5,0.9-4.1,0.9V27.5h2.2V20h-30.4v7.4h5v37.9l-6.4,0.9l2.2,8.6c7.2-1.6,13.5-3.1,19.1-4.4
	v11.1h8.3v-4.4c1.8,1.8,3.1,3.3,4.1,4.7c5.5-4.4,9.8-9.5,13-15.5c4,6.4,8.4,11.5,13,15.5c1.4-2.6,3.1-4.9,4.7-6.7
	c0.7-0.6,1.2-1,1.6-1.4C392,69.7,387,63.5,385.3,55.2z M348.3,27.6h7.2V35h-7.2V27.6z M348.3,41.7h7.2v7.4h-7.2V41.7z M355.7,62.9
	c-2.6,0.6-5.1,1-7.4,1.1v-8.3h7.4V62.9z"/>
</svg>
